<?xml version="1.0"?>
<svg width="192.756" height="25" xmlns="http://www.w3.org/2000/svg" xmlns:svg="http://www.w3.org/2000/svg">
 <g class="layer">
  <title>Layer 1</title>
  <g clip-rule="evenodd" fill-rule="evenodd" id="svg_1">
   <path d="m44.47,21.93l6.26,-19.19l9.45,0l6.36,19.19l-7.19,0l-1.2,-3.46l-5.66,0l-1.2,3.46l-6.82,0zm11,-14.94l-2.73,7.6l5.25,0l-2.52,-7.6zm69.07,14.95l6.25,-19.19l9.45,0l6.37,19.19l-7.2,0l-1.19,-3.46l-5.66,0l-1.2,3.46l-6.83,0l0.01,0zm11,-14.94l-2.73,7.6l5.25,0l-2.52,-7.6zm-67.35,14.93l0,-19.19l13.61,0c1.53,0 2.78,0.55 3.77,1.22c0.98,0.67 1.82,1.54 2.16,2.72c0.47,1.67 0.37,3.01 0.05,3.93c-0.32,0.92 -0.87,1.69 -1.66,2.31s-1.45,1.11 -2.92,1.46c0.57,0.58 0.56,0.6 1.24,1.08c0.91,0.65 1.75,0.74 4.88,0.75l5.39,0l0,5.72l-5.42,0.01c-5.9,0.02 -7.98,-0.03 -9.11,-1.04c-1.42,-1.28 -2.96,-2.77 -5.11,-5.31l0,6.34l-6.88,0zm6.88,-14.41l0,3.54l4.79,0c0.26,0 0.54,-0.09 0.84,-0.28c0.29,-0.19 0.46,-0.68 0.47,-1.45c-0.04,-0.73 -0.22,-1.22 -0.53,-1.45c-0.31,-0.24 -0.58,-0.36 -0.78,-0.36l-4.79,0zm114.84,-4.77l-14.04,0c-2.42,0 -3.86,1.19 -4.32,3.56c-0.46,2.37 0.85,4.98 3.91,7.81c1.85,1.48 1.53,2.17 -0.96,2.1l-3.26,0l0,-0.01l-1.73,0c-3.13,-0.01 -3.97,-0.1 -4.89,-0.75c-0.67,-0.48 -0.67,-0.5 -1.23,-1.08c1.47,-0.35 2.13,-0.84 2.92,-1.46s1.34,-1.39 1.66,-2.31c0.31,-0.92 0.42,-2.26 -0.06,-3.93c-0.33,-1.18 -1.18,-2.05 -2.16,-2.72c-0.98,-0.67 -2.23,-1.22 -3.77,-1.22l-13.6,0l0,19.19l6.88,0l0,-6.34c2.14,2.54 3.69,4.03 5.11,5.31c1.13,1.01 3.2,1.09 9.1,1.04l1.03,-0.01l0,0.01l10.12,0c2.74,-0.47 4.14,-1.88 4.19,-4.26c0.05,-2.37 -1.32,-4.84 -4.19,-7.33c-1.57,-1.36 -1.26,-1.89 1,-1.89l8.29,0l0,-5.71zm-34.65,4.77l0,3.54l4.79,0c0.26,0 0.54,-0.09 0.83,-0.28c0.3,-0.19 0.46,-0.68 0.48,-1.45c-0.05,-0.73 -0.23,-1.22 -0.54,-1.45c-0.31,-0.24 -0.57,-0.36 -0.78,-0.36l-4.78,0zm-137.32,-4.78c-2.43,0 -3.87,1.19 -4.33,3.56c-0.45,2.38 0.78,5.07 3.91,7.81c1.78,1.56 1.53,2.1 -0.95,2.1l-13.75,0l0,5.72l19.86,0c2.78,0 4.15,-1.88 4.2,-4.26c0.05,-2.37 -1.35,-4.81 -4.2,-7.33c-1.59,-1.33 -1.25,-1.95 1.01,-1.89l8.52,0l0,13.48l6.19,0l0,-13.48l8.64,0l0,-5.71l-29.1,0zm90.78,0l-1.7,5.7l-1.89,-5.7l-7.1,0l6.26,19.19l6.13,0l2.1,-6.41l2.1,6.41l6.13,0l6.25,-19.19l-7.1,0l-1.88,5.7l-1.71,-5.7l-7.59,0z" fill="#ffffff" id="svg_3"/>
  </g>
 </g>
</svg>